<svg width="1024" height="1024" viewBox="0 0 1024 1024" fill="none" xmlns="http://www.w3.org/2000/svg">
<path d="M86.1559 664.375C115.901 628.659 150.548 591.07 154.344 591.07C157.179 591.07 158.573 592.175 158.429 594.671C158.093 599.423 152.134 609.121 139.736 625.682C113.114 661.302 98.5538 689.961 96.5836 710.172C95.3822 722.413 98.7941 731.534 106.915 737.199C109.462 739.023 111.817 740.463 114.171 741.567C118.4 743.775 121.956 744.591 127.626 744.015C136.853 743.583 149.827 739.791 172.701 732.254C182.696 728.942 191.442 725.533 199.082 721.933C224.455 711.18 251.125 697.498 272.605 683.817C283.369 676.952 293.701 671.095 298.794 668.839C297.737 669.463 296.68 670.039 295.671 670.615C282.456 677.912 258.333 692.506 242.091 703.115C216.958 719.437 213.066 723.853 216.142 732.302C218.16 737.775 224.167 744.495 229.453 747.232C245.214 755.248 255.978 756.353 277.506 745.407C264.868 752.896 253.047 759.521 242.523 764.85C222.148 774.355 201.581 784.532 186.829 792.645C184.859 793.701 182.408 794.805 179.621 795.909C160.639 801.477 145.118 805.366 131.615 807.91C119.361 809.974 107.155 811.415 96.968 811.799C95.5744 811.847 94.1809 811.895 92.8354 811.895H92.7393C92.499 811.895 92.2107 811.895 91.9704 811.895C77.5062 811.895 69.2409 811.271 62.9459 808.918C62.7536 808.822 62.5134 808.774 62.3212 808.678C58.2366 807.046 54.9689 804.598 51.3168 801.045C50.9805 800.709 50.6921 800.421 50.3558 800.133C39.3034 789.044 36.4201 769.458 40.6489 747.424C41.9463 741.183 43.7724 734.51 46.2231 727.405C46.4153 726.733 46.6556 726.109 46.8478 725.485C48.4817 721.165 50.4038 716.748 52.5182 712.428C58.7652 700.09 68.5201 686.169 86.1559 664.375ZM413.835 765.042C408.069 761.201 402.639 757.409 397.689 753.712C366.31 730.238 365.493 729.95 353.528 737.823C346.8 742.191 341.322 746.752 341.322 747.952C341.322 754.144 352.422 768.93 371.404 788.084C383.081 799.845 394.614 812.951 397.016 817.175C398.842 820.392 403.263 824.184 409.654 828.36C397.641 821.592 385.772 814.295 373.999 806.374L373.566 806.038C366.935 801.526 360.447 796.773 354.008 791.876C350.212 788.9 346.56 785.876 343.004 782.804C340.072 780.307 336.997 777.859 334.114 775.651C327.194 769.266 322.244 763.265 322.196 760.961C322.1 755.152 355.738 730.19 363.186 730.478C365.157 730.526 375.152 736.958 387.502 745.839C395.575 752.32 404.417 758.753 413.835 765.042ZM553.384 546.042C575.2 516.518 555.065 475.858 517.007 475.858C507.829 475.858 499.948 478.354 493.653 482.531C498.746 478.546 504.224 480.658 507.108 480.658C510.952 480.658 531.663 509.846 514.316 480.658C502.831 497.844 531.134 478.258 550.619 489.875C569.937 510.566 524.551 503.941 498.842 531.064C498.266 531.688 553.96 545.465 553.384 546.042ZM521.524 523.863C508.982 517.815 521.764 525.679 526.329 513.581C528.54 507.725 478.323 496.836 485.387 489.875C469.77 508.309 471.884 540.185 498.842 554.779C514.076 563.083 528.011 564.188 539.496 558.331C523.831 569.564 535.988 486.992 521.524 523.863ZM372.941 166.32C379.044 165.696 384.859 165.264 390.289 164.976C393.316 165.888 395.671 167.184 396.584 168.624C397.785 170.592 395.719 172.177 391.394 172.945C378.66 172.417 370.154 170.784 370.154 168.624C370.154 167.712 371.163 166.944 372.941 166.32ZM395.19 666.535C378.756 678.68 361.024 691.257 343.1 703.403C376.545 680.36 405.762 658.854 428.251 640.996C428.011 641.236 427.771 641.476 427.531 641.764C427.05 642.148 426.569 642.58 426.089 642.964C417.535 649.733 408.261 656.838 398.458 664.135C397.353 664.903 396.247 665.719 395.19 666.535ZM550.356 880.734C520.899 874.494 491.971 865.661 464.484 854.619C491.442 865.133 522.533 874.878 550.356 880.734ZM324.887 652.133C328.299 649.301 332.288 646.037 336.468 642.676C334.69 644.212 333.057 645.556 331.711 646.757C330.029 648.245 327.675 650.117 324.887 652.133ZM470.25 603.552C473.903 599.327 475.873 596.111 475.873 594.143C475.873 596.111 473.999 599.231 470.587 603.264C470.491 603.36 470.347 603.456 470.25 603.552Z" fill="#6A3E94"/>
<path d="M216.045 633.075C203.407 613.009 193.988 596.591 186.348 580.462C166.742 537.497 154.104 487.427 149.971 439.998C148.674 417.1 149.106 392.761 151.268 371.495C153.239 355.605 156.41 340.195 160.687 325.602L160.783 325.314C156.026 353.301 158.38 409.851 166.069 421.564C169.961 427.469 173.085 433.998 173.037 436.062C173.037 438.174 170.874 436.59 168.328 432.653C164.531 426.797 163.666 427.373 163.618 435.87C163.57 441.582 166.213 447.199 169.529 448.303C172.845 449.455 176.208 446.383 177.073 441.486C177.938 436.638 180.533 432.653 182.888 432.653C185.243 432.653 186.732 422.092 186.156 409.179C185.435 392.425 187.549 382.968 193.556 376.391C196.103 373.559 198.409 369.479 199.947 365.254C197.496 387 197.881 409.275 201.196 432.317C204.56 457.28 211.192 483.251 221.091 510.374C224.983 521.079 229.068 531.064 233.248 540.281C238.727 555.259 242.907 567.596 243.868 571.869C244.589 574.989 247.232 580.414 250.932 586.846C254.825 593.855 259.87 601.92 265.06 609.313C275.151 623.762 282.215 637.492 280.726 639.892C278.371 643.781 242.619 667.879 239.303 667.879C238.582 667.879 228.155 652.182 216.045 633.075ZM550.356 880.735C520.899 874.494 491.97 865.661 464.484 854.62C456.411 851.403 448.434 847.947 440.601 844.347C430.125 839.402 419.842 834.073 409.654 828.361C403.263 824.184 398.842 820.392 397.016 817.176C394.613 812.951 383.08 799.846 371.403 788.084C352.422 768.93 341.321 754.145 341.321 747.952C341.321 746.752 346.8 742.191 353.527 737.823C365.493 729.95 366.31 730.238 397.689 753.713C402.638 757.409 408.068 761.201 413.835 765.042C420.37 769.362 427.146 773.635 434.113 777.811C442.907 783.476 454.056 789.525 468.376 796.629C471.019 797.974 473.614 799.27 476.257 800.518C497.545 810.935 513.787 818.136 528.972 823.128C530.51 823.656 532.047 824.184 533.537 824.664C535.94 825.481 538.294 826.201 540.745 826.873C523.398 823.368 515.084 823.56 507.348 827.065C488.03 835.85 499.995 847.947 541.898 861.964C562.417 868.829 582.456 876.558 586.396 879.102C590.529 881.743 597.689 883.087 606.675 883.327C585.675 884.719 565.733 883.999 550.356 880.735ZM290.865 730.286C286.828 736.815 294.565 734.319 310.711 724.813C299.322 732.158 288.126 739.119 277.506 745.408C255.978 756.353 245.214 755.249 229.452 747.232C224.166 744.496 218.159 737.775 216.141 732.302C213.066 723.853 216.958 719.437 242.09 703.115C256.17 693.946 276.112 681.753 289.808 673.928C278.035 681.513 276.737 685.545 277.506 697.498C279.188 722.989 280.053 725.486 287.165 725.486C290.817 725.486 292.499 727.646 290.865 730.286ZM515.517 542.49C529.933 551.755 541.658 553.963 549.731 549.69C546.223 553.051 542.811 555.931 539.496 558.331C528.011 564.188 514.075 563.084 498.842 554.779C471.884 540.185 469.769 508.31 485.387 489.876C487.069 488.244 488.751 486.659 490.433 485.219C487.742 490.932 488.799 499.573 493.076 511.91C496.728 522.423 499.803 531.4 499.803 531.784C499.851 532.216 506.915 537.017 515.517 542.49ZM432.624 412.107C420.947 413.595 413.258 413.835 409.75 412.875C404.272 411.339 408.885 406.827 424.118 399.626C424.551 399.434 424.983 399.242 425.416 399.05C426.665 398.522 427.915 397.946 429.164 397.322C429.404 397.226 429.644 397.13 429.885 396.986C445.262 390.217 458.909 384.648 460.255 384.648C463.907 384.648 474.287 380.28 485.243 374.855C489.856 372.935 494.854 370.871 499.947 368.71C480.053 377.831 471.067 382.872 471.067 384.744C471.067 386.52 474.863 391.225 479.476 395.257C484.282 399.434 488.511 401.162 513.595 397.61L506.579 398.906C486.396 402.65 468.808 405.915 457.756 407.979C456.843 408.171 455.93 408.315 455.065 408.507C450.019 408.123 442.715 409.371 432.624 412.107ZM632.336 621.698C631.182 622.898 630.029 624.098 628.828 625.347C614.556 640.468 603.936 649.637 603.407 647.429C605.041 641.764 608.885 631.635 613.691 620.498C622.004 601.632 633.105 577.581 645.118 552.427C631.759 581.422 630.606 590.111 635.651 595.151C639.207 598.704 644.253 597.456 652.47 590.975C661.504 583.87 681.014 562.7 693.845 546.666C681.927 562.748 664.099 584.734 647.28 604.608C642.523 609.985 637.526 615.65 632.336 621.698ZM440.745 553.147L457.516 570.285C449.539 562.988 441.177 556.891 437.285 556.363L440.745 553.147ZM403.119 587.71C405.137 585.886 407.107 584.062 409.077 582.286L431.807 561.404C425.031 568.892 410.663 581.854 393.508 596.303C396.92 593.327 400.091 590.495 403.119 587.71ZM470.25 603.552C466.358 606.817 461.841 610.753 456.987 615.217C467.895 604.752 475.44 596.495 475.872 593.903C475.872 593.999 475.872 594.095 475.872 594.143C475.872 596.111 473.902 599.328 470.25 603.552ZM729.308 360.79C721.428 360.838 705.426 362.902 678.996 367.318C705.281 362.662 721.38 360.55 729.308 360.79ZM598.746 326.13C601.822 324.882 604.945 323.586 608.02 322.289C634.45 311.392 662.562 299.583 670.49 296.079C662.562 299.583 634.45 311.44 608.02 322.433C597.833 326.658 588.222 330.642 579.284 334.435C585.723 331.698 592.403 328.818 598.746 326.13ZM703.503 821.88C704.176 821.544 704.849 821.256 705.522 820.872C722.389 813.575 738.15 802.822 756.026 787.412C737.141 803.686 721.091 814.631 703.503 821.88ZM545.07 484.931C537.333 479.315 527.386 476.002 516.238 475.858C516.478 475.858 516.766 475.858 517.006 475.858C528.107 475.858 537.622 479.315 545.07 484.931ZM213.018 232.664C206.29 240.056 199.899 248.121 193.892 256.762C198.553 249.849 203.551 243.273 208.741 237.176C210.183 235.64 211.576 234.152 213.018 232.664ZM571.259 832.873C581.831 834.217 595.382 835.082 609.222 835.274C595.142 835.226 582.744 834.457 571.259 832.873ZM735.363 362.95C735.363 364.582 728.636 379.752 718.496 401.402C728.299 380.376 734.739 365.638 735.315 362.614C735.363 362.758 735.363 362.854 735.363 362.95ZM766.646 455.984C798.41 418.06 846.896 357.909 874.431 322.241C846.896 357.909 798.41 418.108 766.646 456.032C746.56 479.987 727.482 503.173 715.181 518.439C726.762 504.037 745.935 480.755 766.646 455.984ZM561.745 526.744C562.033 524.248 562.177 521.607 562.225 518.775C562.225 516.951 562.129 515.175 561.937 513.446C562.562 517.815 562.513 522.279 561.745 526.744ZM205.569 333.859C206.53 329.634 207.684 325.314 208.933 321.281C210.807 315.137 212.922 309.088 215.276 303.183C239.255 243.177 287.934 195.363 340.024 182.258C287.982 195.363 239.015 243.465 215.276 303.183C212.97 308.992 210.903 314.945 209.077 320.993C207.78 325.266 206.627 329.538 205.569 333.859ZM553.96 829.801C554.729 829.945 555.498 830.041 556.266 830.185C558.333 830.665 560.351 831.097 562.369 831.481L562.61 831.529C559.678 831.001 556.795 830.425 553.96 829.801ZM680.774 479.843C681.447 478.547 682.071 477.25 682.696 475.954C682.023 477.346 681.351 478.691 680.678 480.083L680.774 479.843Z" fill="#7C4DA5"/>
<path d="M703.504 821.88C720.803 814.727 736.661 804.022 755.21 788.132C746.416 796.389 740.889 804.358 742.427 806.854C744.205 809.686 747.617 810.839 750.068 809.302C752.518 807.814 753.095 810.455 751.317 815.255C748.29 823.512 748.578 823.512 757.756 815.495C763.042 810.887 769.337 807.094 771.788 807.046C772.317 807.046 772.941 806.854 773.662 806.374C753.335 828.937 726.954 850.731 705.426 861.532L705.33 861.58C680.197 873.005 641.898 881.07 606.675 883.327C597.689 883.087 590.529 881.742 586.396 879.102C582.456 876.558 562.417 868.829 541.898 861.964C499.995 847.947 488.03 835.849 507.348 827.064C515.084 823.56 523.398 823.368 540.745 826.872C544.926 828.024 549.251 828.985 553.96 829.801C556.795 830.425 559.678 831.001 562.61 831.529C565.156 832.009 568.088 832.489 571.259 832.873C582.744 834.457 595.142 835.225 609.222 835.273C618.544 835.417 627.963 835.273 636.709 834.841C644.59 834.409 651.942 833.785 658.813 832.969C679.861 831.961 688.367 829.225 703.504 821.88ZM266.358 192.579C268.856 191.427 271.643 190.275 274.767 189.075C269.049 192.099 264.435 197.331 264.435 200.932C264.435 204.58 262.273 206.26 259.63 204.628C256.987 202.996 254.825 203.956 254.825 206.74C254.825 209.525 252.134 211.301 248.818 210.629C245.502 209.957 243.628 212.693 244.637 216.63C245.598 220.566 246.511 226.423 246.607 229.639C246.752 232.807 248.097 234.631 249.635 233.623C251.076 232.711 265.3 223.206 282.023 212.021C271.836 220.086 262.225 229.447 253.383 239.816C237.765 258.202 224.647 279.756 215.276 303.183C212.922 309.088 210.807 315.136 208.933 321.281C207.684 325.313 206.53 329.634 205.569 333.858C203.023 344.227 201.148 354.693 199.947 365.254C198.409 369.478 196.103 373.559 193.556 376.391C187.549 382.968 185.435 392.425 186.156 409.179C186.732 422.092 185.243 432.653 182.888 432.653C180.533 432.653 177.938 436.638 177.073 441.486C176.209 446.383 172.845 449.455 169.529 448.303C166.213 447.199 163.57 441.582 163.618 435.87C163.666 427.373 164.531 426.797 168.328 432.653C170.875 436.59 173.037 438.174 173.037 436.062C173.085 433.997 169.962 427.469 166.069 421.564C158.381 409.851 156.026 353.3 160.783 325.313C169.337 299.535 180.533 276.492 193.892 256.762C199.899 248.121 206.29 240.056 213.018 232.663C213.402 232.327 213.787 231.943 214.171 231.559C224.022 222.294 235.171 212.981 245.406 205.54C253.527 199.732 261.12 194.979 266.358 192.579ZM647.665 372.743C632.624 375.383 615.421 378.551 595.767 382.248C569.001 387.24 539.304 392.809 513.595 397.609C488.511 401.162 484.282 399.434 479.476 395.257C474.863 391.225 471.067 386.52 471.067 384.744C471.067 382.872 480.053 377.831 499.947 368.71C513.739 362.902 528.395 356.613 538.919 351.86C541.946 350.516 544.974 349.22 547.953 347.924C553.96 345.284 566.07 340.051 579.284 334.434C588.222 330.642 597.833 326.658 608.021 322.433C617.295 318.593 626.762 314.608 635.507 310.96C627.867 314.32 619.169 318.161 608.741 322.769C574.335 337.987 569.722 341.443 570.923 351.428C573.518 373.463 597.929 380.327 647.665 372.743ZM290.865 730.286C292.499 727.645 290.817 725.485 287.165 725.485C280.053 725.485 279.188 722.989 277.506 697.498C276.737 685.545 278.035 681.512 289.808 673.928C291.922 672.727 293.892 671.575 295.67 670.615C296.68 670.039 297.737 669.463 298.794 668.839C300.236 668.215 301.293 667.879 301.773 667.879C301.917 667.879 302.062 667.879 302.254 667.831C293.94 674.216 295.382 675.656 302.878 680.888C308.212 684.633 318.496 690.777 325.656 694.474C336.949 700.33 339.976 700.282 348.385 694.042C353.768 690.057 363.522 684.153 370.154 680.936C378.227 677 384.858 673.352 390.096 670.039C375.68 680.6 359.918 691.786 343.1 703.403C332.287 710.748 321.427 717.948 310.711 724.813C294.565 734.318 286.829 736.814 290.865 730.286ZM654.681 558.283C658.429 566.204 663.33 569.708 668.664 568.316C673.037 567.164 679.477 562.459 685.916 556.267C673.95 570.236 659.823 585.214 652.47 590.974C644.253 597.455 639.207 598.703 635.651 595.151C630.606 590.11 631.759 581.421 645.118 552.426C652.999 535.96 661.264 519.015 669.385 502.885C673.566 494.58 677.314 487.043 680.678 480.082C681.351 478.738 682.023 477.346 682.696 476.002V475.954C690 461.168 697.016 446.671 703.455 433.229C693.989 453.199 683.273 475.57 672.461 497.796C651.557 540.761 649.587 547.482 654.681 558.283ZM210.038 249.609C211.672 255.946 215.805 257.53 226.425 255.994C238.679 254.218 239.784 252.874 234.546 246.345C230.365 241.208 230.221 239.912 234.113 242.216C237.814 244.425 239.592 242.312 239.111 236.168C238.582 229.015 236.901 227.959 232.191 231.847C227.674 235.592 225.992 235.352 225.992 230.887C225.992 226.615 223.205 227.287 216.91 232.951C211.913 237.464 208.789 245.001 210.038 249.609ZM447.136 624.386C441.802 627.747 434.979 633.891 428.251 640.996C419.553 647.909 409.798 655.35 399.226 663.27C404.849 658.134 406.146 653.909 403.311 650.453C400.284 646.853 398.602 643.732 399.611 643.54C400.572 643.348 407.396 642.436 414.748 641.476C422.388 640.468 439.544 629.523 453.72 618.193C452.71 619.154 451.701 620.114 450.692 621.074C449.539 622.13 448.338 623.282 447.136 624.386ZM389.087 600.191C390.577 598.847 392.066 597.551 393.508 596.303C400.812 590.158 407.54 584.302 413.45 579.021L412.778 579.693C395.478 596.783 386.396 609.409 388.078 613.873C390.096 619.106 388.414 620.258 381.687 618.193C375.632 616.321 365.252 621.026 350.932 632.019C345.983 635.811 339.976 640.324 333.921 644.836C334.738 644.164 335.555 643.444 336.468 642.676C345.022 635.811 354.344 628.563 360.543 623.954C366.406 619.538 377.41 610.369 389.087 600.191ZM729.308 360.789C721.38 360.549 705.282 362.662 678.996 367.318C675.344 367.894 671.548 368.566 667.511 369.238V369.19C699.323 363.142 720.274 360.261 729.693 360.789C729.549 360.741 729.453 360.789 729.308 360.789ZM670.923 295.886C678.323 292.622 702.206 283.501 727.723 274.044C731.423 272.796 735.171 271.5 738.919 270.155C737.862 270.539 736.805 270.923 735.748 271.308C703.84 283.117 687.309 289.213 670.923 295.886ZM759.486 784.292C771.548 772.962 786.733 754.336 798.458 737.535C786.204 755.296 770.443 774.835 759.486 784.292ZM766.646 455.984C758.477 465.777 750.5 475.33 743.148 484.211C750.5 475.282 758.477 465.681 766.646 455.936C797.16 419.548 843.148 362.566 871.115 326.514C843.148 362.566 797.16 419.548 766.646 455.984ZM475.824 594.047C475.248 590.686 467.607 580.653 458.333 571.1C467.703 580.749 475.44 590.83 475.872 593.903C475.872 593.951 475.824 593.999 475.824 594.047ZM338.679 182.594C338.967 182.498 339.207 182.45 339.447 182.402C352.134 179.185 360.639 175.393 363.138 172.609C360.735 175.393 352.422 179.137 340.024 182.258C339.592 182.354 339.159 182.45 338.679 182.594ZM824.743 697.498C823.975 696.97 822.965 696.682 821.86 696.682C822.965 696.682 823.878 696.826 824.599 697.162C824.647 697.258 824.695 697.402 824.743 697.498Z" fill="#895AB0"/>
<path d="M556.122 213.893C566.454 218.358 576.977 223.638 588.462 230.071C590.336 231.559 592.451 232.999 594.613 234.439C573.181 223.542 566.646 221.43 569.433 225.943C570.923 228.391 570.01 231.655 567.415 233.287C561.841 236.696 577.266 254.554 583.08 251.433C585.243 250.233 583.08 246.249 578.275 242.504C570.538 236.456 571.067 236.312 582.936 241.4C590.288 244.521 594.181 248.409 591.586 249.993C585.723 253.594 590.144 260.074 605.618 270.443C607.011 271.404 608.261 272.22 609.414 272.988C605.137 270.491 599.467 267.035 591.97 262.379C590.961 261.754 589.856 261.082 588.703 260.41C583.993 257.434 577.17 253.834 568.039 249.321C554.777 242.696 539.64 235.736 527.098 230.743C526.377 230.455 525.656 230.167 524.983 229.879C521.908 228.343 518.688 226.903 515.42 225.607C503.84 221.094 494.757 218.358 481.927 216.774C478.131 216.149 474.142 215.621 469.769 215.189C453.671 212.789 436.612 211.829 416.382 211.829C410.038 211.829 404.368 211.877 399.226 212.021C377.89 211.781 367.751 213.173 353.815 217.974C345.646 219.75 338.39 222.39 328.875 226.279C325.464 227.671 322.1 229.159 318.736 230.839C310.519 233.335 304.656 234.439 303.695 233.431C299.947 229.687 320.85 213.029 334.113 209.189C339.399 207.701 348.049 204.58 353.335 202.324C375.728 192.771 407.492 187.874 439.159 188.21C460.879 188.979 483.945 192.339 507.876 198.292C524.166 202.756 541.658 208.421 556.122 213.893ZM324.887 652.133C327.674 650.117 330.029 648.245 331.711 646.757C332.383 646.181 333.152 645.509 333.921 644.836C339.976 640.324 345.983 635.812 350.932 632.019C365.252 621.026 375.632 616.321 381.687 618.194C388.414 620.258 390.096 619.106 388.078 613.873C386.396 609.409 395.478 596.783 412.777 579.693L413.45 579.021C413.979 578.541 414.459 578.109 414.94 577.677C400.572 593.375 401.629 600.864 415.997 616.321C422.725 623.57 430.894 629.475 434.113 629.475C437.765 629.475 446.607 623.762 455.209 616.849C454.728 617.281 454.248 617.762 453.719 618.194C439.543 629.523 422.388 640.468 414.748 641.476C407.395 642.436 400.572 643.348 399.611 643.54C398.602 643.732 400.283 646.853 403.311 650.453C406.146 653.909 404.849 658.134 399.226 663.27C396.247 665.479 393.22 667.735 390.096 670.039C384.858 673.352 378.227 677 370.154 680.936C363.522 684.153 353.767 690.057 348.385 694.042C339.976 700.283 336.948 700.331 325.656 694.474C318.496 690.778 308.212 684.633 302.878 680.888C295.382 675.656 293.94 674.216 302.254 667.831C305.233 667.063 315.036 660.294 324.839 652.181L324.887 652.133ZM816.814 585.358C817.007 599.616 816.43 614.065 815.277 627.459C812.49 649.925 807.252 671.431 799.755 690.922C788.895 716.652 778.612 733.79 765.877 747.664C751.653 762.881 740.889 767.97 740.216 760.529C740.697 757.121 746.896 747.136 754.392 737.727C762.225 727.886 769.962 715.164 771.596 709.452C773.229 703.739 777.699 692.122 781.543 683.625C781.879 682.905 782.216 682.089 782.552 681.177C783.177 679.688 783.753 678.152 784.33 676.616C790.481 660.15 794.181 641.572 795.334 621.218C797.881 602.448 798.025 593.759 795.046 583.39C794.613 577.389 793.989 571.436 793.172 565.532C792.067 557.947 791.106 551.514 790.241 545.994C795.046 564.524 797.545 566.3 804.801 564.092C809.895 562.508 813.21 561.547 815.036 559.339C815.132 559.243 815.229 559.099 815.325 558.955C815.901 567.116 816.43 576.045 816.814 585.358ZM809.414 750.928C800.668 769.554 789.472 787.268 776.449 803.254C775.536 804.31 774.623 805.318 773.662 806.374C772.941 806.854 772.316 807.046 771.788 807.046C769.337 807.094 763.042 810.887 757.756 815.495C748.578 823.512 748.29 823.512 751.317 815.255C753.095 810.455 752.518 807.814 750.068 809.303C747.617 810.839 744.205 809.687 742.427 806.854C740.889 804.358 746.415 796.389 755.209 788.132C755.45 787.892 755.738 787.652 756.026 787.412C757.131 786.452 758.285 785.396 759.486 784.292C770.442 774.835 786.204 755.297 798.458 737.535C809.222 722.221 817.055 708.347 817.055 702.923C817.055 699.515 819.217 696.682 821.86 696.682C822.965 696.682 823.974 696.97 824.743 697.498C824.791 697.498 824.791 697.546 824.791 697.546C827.53 701.915 819.794 727.166 809.414 750.928ZM338.678 182.594C318.88 187.826 299.611 198.051 282.023 212.021C265.3 223.206 251.076 232.711 249.635 233.623C248.097 234.632 246.751 232.807 246.607 229.639C246.511 226.423 245.598 220.566 244.637 216.63C243.628 212.693 245.502 209.957 248.818 210.629C252.133 211.301 254.824 209.525 254.824 206.74C254.824 203.956 256.987 202.996 259.63 204.628C262.273 206.26 264.435 204.58 264.435 200.932C264.435 197.331 269.048 192.099 274.767 189.075C283.561 185.57 292.739 182.546 302.494 179.81C319.313 175.153 337.669 171.265 355.113 168.624C355.257 168.624 355.401 168.624 355.497 168.624C362.946 168.624 365.108 170.256 363.138 172.609C360.639 175.393 352.133 179.185 339.447 182.402C339.207 182.45 338.967 182.498 338.678 182.594ZM660.591 370.438C656.507 371.158 652.182 371.927 647.665 372.743C597.929 380.327 573.518 373.463 570.923 351.428C569.721 341.443 574.335 337.987 608.741 322.769C613.498 320.657 617.919 318.689 622.052 316.865C609.222 324.497 597.689 336.307 600.091 340.723C601.004 342.451 603.792 347.636 606.242 352.244C608.741 356.853 613.739 360.645 617.391 360.645C621.043 360.645 624.743 362.758 625.656 365.302C627.915 371.927 640.264 372.791 673.998 367.99C671.884 368.374 669.722 368.758 667.511 369.19H667.463L660.591 370.438ZM654.681 558.283C649.587 547.482 651.557 540.761 672.461 497.796C681.495 479.17 690.529 460.496 698.746 443.166L679.524 484.019C670.586 503.077 663.282 522.903 663.282 528.136C663.282 540.665 671.5 545.37 680.438 537.977C686.396 533.08 686.973 533.56 684.138 541.193C681.014 549.498 681.447 549.642 689.76 543.065C696.391 537.785 710.375 522.807 729.068 501.349C723.734 507.877 719.025 513.638 715.18 518.439C708.02 527.272 703.167 533.512 701.725 535.673C699.563 538.841 696.92 542.585 693.845 546.666C691.442 549.738 688.751 552.954 685.916 556.267C679.476 562.459 673.037 567.164 668.664 568.316C663.33 569.708 658.429 566.204 654.681 558.283ZM210.038 249.609C208.789 245.001 211.912 237.464 216.91 232.951C223.205 227.287 225.992 226.615 225.992 230.887C225.992 235.352 227.674 235.592 232.191 231.847C236.9 227.959 238.582 229.015 239.111 236.168C239.591 242.312 237.813 244.425 234.113 242.216C230.221 239.912 230.365 241.208 234.546 246.345C239.784 252.874 238.678 254.218 226.425 255.994C215.805 257.53 211.672 255.946 210.038 249.609ZM782.888 488.483C779.909 495.06 780.438 503.509 785.003 524.103C784.907 523.863 784.811 523.671 784.714 523.431C779.573 501.973 778.996 495.396 782.888 488.483ZM626.857 275.436C628.828 273.468 632.432 271.548 634.834 271.26C636.18 271.067 637.814 270.827 639.255 270.587C638.438 271.356 636.949 271.836 634.834 271.836C632.432 271.836 628.828 273.468 626.857 275.436ZM802.831 494.916C798.842 483.827 795.046 478.882 791.057 479.602C795.094 478.306 798.65 482.963 802.831 494.916ZM475.824 594.047C475.824 594.047 475.824 594.047 475.824 594.095C475.248 591.071 469.481 583.15 461.937 574.941C469.529 583.198 475.296 591.119 475.824 594.047ZM624.214 277.596C625.079 277.116 625.896 276.348 626.857 275.436C625.896 276.396 625.079 277.116 624.214 277.596Z" fill="#9467B9"/>
<path d="M751.605 432.941C756.987 436.253 761.024 439.038 765.397 439.71C774.047 441.006 783.946 433.901 807.973 405.77C793.172 423.964 778.708 441.582 766.646 455.936C758.477 465.681 750.5 475.282 743.148 484.211C738.15 490.307 733.393 496.068 729.068 501.349C710.375 522.807 696.391 537.785 689.76 543.065C681.447 549.642 681.014 549.498 684.138 541.193C686.973 533.56 686.396 533.08 680.438 537.977C671.5 545.369 663.282 540.665 663.282 528.135C663.282 522.903 670.587 503.077 679.525 484.019L698.746 443.166C700.332 439.806 701.918 436.493 703.455 433.229C708.982 421.66 714.123 410.907 718.496 401.402H718.544C723.446 390.84 727.578 381.815 730.51 375.143C720.034 401.594 720.37 404.858 728.828 414.363C733.729 419.884 744.013 428.285 751.605 432.941ZM670.923 295.886C673.181 294.974 675.44 294.062 677.699 293.15C647.136 305.775 644.061 310.96 644.061 322.049C644.061 345.476 677.747 363.862 715.661 361.173C722.437 360.693 727.002 360.453 729.981 360.789C729.885 360.789 729.789 360.789 729.693 360.789C720.947 360.309 702.206 362.757 673.998 367.99C640.265 372.79 627.915 371.926 625.656 365.302C624.743 362.757 621.043 360.645 617.391 360.645C613.739 360.645 608.741 356.853 606.242 352.244C603.792 347.636 601.005 342.451 600.092 340.723C597.689 336.307 609.222 324.497 622.052 316.864C626.906 314.752 631.375 312.784 635.507 310.96C651.653 304.143 665.349 298.334 670.49 296.078C670.635 295.982 670.779 295.934 670.923 295.886ZM456.651 601.008C456.651 602.976 460.976 603.456 466.262 602.064C468.664 601.439 470.586 600.671 472.028 599.711C468.712 603.648 463.426 609.072 456.987 615.217C456.411 615.745 455.834 616.273 455.209 616.849C446.608 623.762 437.766 629.475 434.114 629.475C430.894 629.475 422.725 623.57 415.997 616.321C401.629 600.863 400.572 593.375 414.94 577.677C422.244 571.1 428.155 565.436 431.807 561.403L437.285 556.363C441.177 556.891 449.539 562.987 457.516 570.284L458.333 571.1C459.534 572.396 460.735 573.644 461.937 574.941C462.273 575.325 462.609 575.709 462.994 576.093C461.648 574.797 460.159 573.5 458.621 572.156C445.598 560.731 439.832 558.283 435.075 562.219C426.233 569.564 431.855 586.126 445.31 592.271C451.557 595.103 456.651 599.039 456.651 601.008ZM782.888 488.483C783.417 487.523 784.042 486.515 784.763 485.507C787.069 482.242 789.135 480.178 791.058 479.602C795.046 478.882 798.842 483.827 802.831 494.916C803.6 497.124 804.417 499.572 805.233 502.261L807.252 509.798C810.039 520.119 812.249 530.584 813.883 541.145C814.364 546.378 814.844 552.378 815.325 558.955C815.229 559.099 815.133 559.243 815.036 559.339C813.21 561.547 809.895 562.507 804.801 564.091C797.545 566.3 795.046 564.523 790.241 545.993C788.559 535.816 787.021 528.904 785.003 524.103C780.438 503.509 779.909 495.06 782.888 488.483ZM515.517 542.489C506.915 537.016 499.851 532.216 499.803 531.784C499.803 531.4 496.728 522.423 493.076 511.91C488.799 499.572 487.742 490.931 490.433 485.219C491.49 484.259 492.595 483.395 493.652 482.531C499.803 478.498 507.396 476.002 516.238 475.858C516.718 475.858 517.199 475.906 517.679 475.906C512.634 477.106 509.174 480.658 508.741 486.659C507.203 508.645 509.846 516.902 521.812 527.463C536.42 540.377 541.946 540.857 553.575 530.344C559.246 525.159 562.033 519.399 561.889 513.158C561.937 513.254 561.937 513.35 561.937 513.446C562.129 515.174 562.225 516.95 562.225 518.774C562.177 521.607 562.033 524.247 561.745 526.743C560.639 533.368 557.9 539.945 553.383 546.041C552.134 547.338 550.932 548.538 549.731 549.69C541.658 553.962 529.933 551.754 515.517 542.489ZM610.423 242.984C615.469 246.057 620.707 249.321 626.233 252.825L626.281 252.873H626.329C637.189 259.882 642.379 267.563 639.255 270.587C637.814 270.827 636.18 271.067 634.835 271.259C632.432 271.547 628.828 273.468 626.858 275.436C625.896 276.348 625.08 277.116 624.215 277.596C621.62 279.084 618.448 278.172 609.414 272.988C608.261 272.219 607.011 271.403 605.618 270.443C590.144 260.074 585.723 253.593 591.586 249.993C594.181 248.409 590.289 244.52 582.936 241.4C571.067 236.312 570.538 236.456 578.275 242.504C583.08 246.249 585.243 250.233 583.08 251.433C577.266 254.554 561.841 236.696 567.415 233.287C570.01 231.655 570.923 228.391 569.433 225.942C566.646 221.43 573.181 223.542 594.613 234.439C599.707 237.704 605.281 240.728 610.423 242.984ZM976.834 176.065C978.275 175.441 979.525 175.057 980.582 174.913C980.87 175.201 981.111 175.633 981.351 176.161C976.594 177.121 967.271 180.145 955.738 184.37C961.697 181.922 967.031 179.713 971.404 177.937C973.47 177.361 975.296 176.737 976.834 176.065ZM545.07 484.931C550.308 488.867 554.488 493.86 557.42 499.476C555.45 496.164 552.758 492.804 549.443 489.299C547.136 486.899 544.685 484.787 542.187 483.011C543.196 483.635 544.157 484.259 545.07 484.931ZM475.152 595.487C475.392 594.431 475.344 593.231 474.959 591.886C475.44 592.751 475.728 593.519 475.824 594.095C475.728 594.431 475.488 594.911 475.152 595.487ZM843.244 228.967C832.144 233.479 821.235 237.992 814.652 240.872C821.476 237.896 832.432 233.335 843.244 228.967Z" fill="#A06BCA"/>
<path d="M735.363 362.949C735.363 362.853 735.363 362.757 735.315 362.613C735.363 362.469 735.363 362.373 735.363 362.277C735.363 361.317 733.681 360.789 729.981 360.789C727.002 360.453 722.437 360.693 715.661 361.173C677.747 363.861 644.061 345.475 644.061 322.049C644.061 310.96 647.136 305.775 677.699 293.15C692.115 287.437 708.213 281.484 735.748 271.307C736.805 270.923 737.862 270.539 738.919 270.155C750.548 266.075 762.37 261.706 773.71 257.434C771.211 258.97 768.28 261.082 765.541 263.482C760.207 268.091 744.734 279.42 731.183 288.685C717.055 298.286 706.531 309.087 706.531 313.984C706.531 318.689 714.075 327.041 723.35 332.466C732.624 337.939 740.169 345.715 740.169 349.748C740.169 353.828 745.022 361.701 750.981 367.318C756.94 372.886 765.637 383.352 770.299 390.6C781.831 408.506 791.154 405.866 825.32 374.855C835.988 365.206 864.388 332.61 895.046 295.742C887.934 304.815 880.967 313.84 874.431 322.241C873.47 323.489 872.461 324.785 871.452 326.081C871.356 326.225 871.26 326.369 871.115 326.513C854.201 348.308 830.654 377.783 807.973 405.77C783.946 433.901 774.047 441.006 765.397 439.71C761.024 439.038 756.988 436.253 751.606 432.941C744.013 428.285 733.729 419.884 728.828 414.363C720.371 404.858 720.034 401.594 730.51 375.143C733.585 368.182 735.363 363.765 735.363 362.949ZM529.164 510.23C534.883 520.983 549.395 521.703 557.66 511.718C559.102 509.989 560.063 508.501 560.495 506.965C561.12 508.981 561.601 511.046 561.889 513.158C562.033 519.399 559.246 525.159 553.576 530.344C541.946 540.857 536.42 540.377 521.812 527.463C509.847 516.902 507.204 508.645 508.741 486.659C509.174 480.658 512.634 477.106 517.679 475.906C526.906 476.242 535.267 478.786 542.187 483.011C544.686 484.787 547.136 486.899 549.443 489.299C549.731 489.587 549.972 489.875 550.212 490.115C544.445 484.739 537.429 480.658 533.729 480.658C524.695 480.658 522.148 497.172 529.164 510.23ZM456.651 601.007C456.651 599.039 451.557 595.103 445.31 592.27C431.855 586.126 426.233 569.564 435.075 562.219C439.832 558.283 445.599 560.731 458.621 572.156C460.159 573.5 461.649 574.797 462.994 576.093C468.616 582.333 473.133 588.286 474.959 591.886C475.344 593.231 475.392 594.431 475.152 595.487C474.527 596.591 473.47 598.031 472.028 599.711C470.587 600.671 468.664 601.439 466.262 602.064C460.976 603.456 456.651 602.976 456.651 601.007ZM811.913 242.072C812.922 241.64 813.883 241.256 814.652 240.872C821.476 237.896 832.432 233.335 843.244 228.967C846.127 227.815 848.963 226.662 851.75 225.606C837.045 231.463 819.506 238.808 808.501 243.704C796.392 249.129 784.859 253.689 780.582 254.793C792.019 250.377 802.735 246.009 811.913 242.072ZM981.351 176.161C981.399 176.353 981.495 176.497 981.543 176.689C979.717 176.785 977.315 177.265 974.239 178.081C977.17 177.169 979.573 176.545 981.351 176.161Z" fill="#B278E0"/>
<path d="M966.31 205.732C965.061 207.365 963.811 209.093 962.562 210.869C960.159 213.893 957.613 217.062 954.873 220.374C942.139 235.976 918.016 266.363 895.046 295.742C864.388 332.61 835.988 365.206 825.32 374.855C791.154 405.866 781.832 408.507 770.299 390.601C765.637 383.352 756.94 372.887 750.981 367.318C745.022 361.701 740.169 353.829 740.169 349.748C740.169 345.716 732.624 337.939 723.35 332.466C714.076 327.042 706.531 318.689 706.531 313.984C706.531 309.088 717.055 298.287 731.183 288.685C744.734 279.42 760.207 268.091 765.541 263.483C768.28 261.082 771.212 258.97 773.71 257.434C776.065 256.522 778.324 255.658 780.582 254.794C784.859 253.69 796.392 249.129 808.501 243.705C819.506 238.808 837.045 231.463 851.75 225.607C854.729 224.406 857.612 223.254 860.303 222.246C872.269 217.638 895.575 208.421 916.719 199.924C920.083 198.868 924.071 197.475 928.684 195.699C900.621 207.605 881.303 218.406 880.438 222.726C878.228 233.959 899.9 265.067 907.829 262.091C913.307 260.074 913.403 260.938 908.453 266.939C905.09 270.924 904.321 274.236 906.724 274.236C910.328 274.236 944.398 233.959 966.454 205.444C966.406 205.54 966.358 205.636 966.31 205.732ZM529.164 510.23C522.148 497.172 524.695 480.658 533.729 480.658C537.43 480.658 544.445 484.739 550.212 490.116C553.191 493.332 555.594 496.404 557.42 499.477C558.669 501.877 559.727 504.373 560.495 506.965C560.063 508.502 559.102 509.99 557.66 511.718C549.395 521.703 534.883 520.983 529.164 510.23ZM970.539 200.116C973.903 195.747 976.834 191.715 979.189 188.354C977.315 191.235 975.008 194.547 972.221 198.292C972.077 198.532 971.885 198.724 971.692 198.916C971.308 199.348 970.923 199.732 970.539 200.116Z" fill="#C280F0"/>
<path d="M908.454 266.939C913.403 260.938 913.307 260.074 907.829 262.09C899.9 265.067 878.228 233.959 880.438 222.726C881.351 218.262 902.158 206.74 931.904 194.307C987.887 170.928 985.244 171.745 985.244 178.129C985.244 184.658 912.106 274.236 906.724 274.236C904.321 274.236 905.09 270.923 908.454 266.939Z" fill="#D09BF3"/>
</svg>
